<?xml version="1.0" encoding="utf-8" ?><svg xmlns="http://www.w3.org/2000/svg" xmlns:xlink="http://www.w3.org/1999/xlink" width="512" height="512" viewBox="0 0 512 512"><path d="M182.742 112.211C197.554 96.907 217.891 88.1915 239.188 88.0203C260.53 87.7809 281.075 96.1122 296.222 111.148C299.395 114.284 302.236 118.131 305.013 120.837C306.751 120.633 309.531 118.532 311.237 117.735C313.25 116.795 314.972 116.048 317.087 115.298C335.31 108.765 355.614 112.1 370.791 124.118C381.953 132.945 389.312 145.711 391.359 159.794C404.489 160.775 416.268 157.007 426.174 168.488C430.328 173.281 432.381 179.542 431.874 185.865C431.371 192.288 428.277 198.232 423.303 202.327C421.338 203.974 419.239 205.336 416.868 206.322C418.923 215.205 427.511 229.333 432.041 237.622C436.255 245.299 440.102 253.173 443.569 261.215C457.004 292.503 462.476 326.454 463.69 360.289C464.127 372.46 464.526 384.048 462.436 396.107C460.143 409.415 455.306 422.156 448.188 433.632C446.415 436.475 444.235 439.392 442.57 442.116C444.363 446.455 446.235 450.08 447.794 454.613C452.251 467.576 454.506 481.164 455.574 494.806C455.851 498.356 456.51 504.052 455.218 507.346C454.14 510.097 451.802 510.72 449.953 512L429.981 512C425.004 509.136 421.905 506.021 417.488 502.673C409.083 496.304 400.222 488.235 391.69 482.225C363.701 496.425 329.592 504.48 298.657 508.821C292.229 509.723 286.121 510.201 279.689 510.732C277.116 510.944 270.201 511.356 268.154 512L244.324 512C242.003 511.311 234.066 510.921 231.115 510.67C224.569 510.137 218.041 509.391 211.543 508.434C185.704 504.744 160.413 499.013 136.11 489.319C130.77 487.189 125.417 484.64 120.179 482.234C117.052 484.407 113.358 487.537 110.313 489.975L93.7527 503.238C90.2348 506.055 85.7816 509.914 81.9498 512L61.9708 512C54.8961 507.889 55.7113 505.436 56.2285 497.674C57.1185 484.314 59.0302 470.19 63.2268 457.429C64.2151 454.373 65.3497 451.366 66.6266 448.419C67.3677 446.71 68.9206 443.543 69.3683 441.992C49.6632 414.021 47.1462 394.309 48.2815 361C48.7481 345.384 50.3021 329.818 52.9324 314.418C57.5037 288.028 65.3207 265.151 77.8323 241.589C84.0616 229.859 91.1629 218.944 95.2753 206.358C89.1547 203.829 84.285 198.978 81.7317 192.868C79.4387 187.234 79.5117 180.388 81.8761 174.792C84.3749 168.736 89.2512 163.971 95.3639 161.614C101.897 159.057 113.196 160.181 120.483 159.987C121.231 156.549 121.928 153.167 123.082 149.835C127.083 138.274 134.974 127.744 145.302 121.115C153.614 115.748 163.185 112.651 173.065 112.133C176.464 111.978 179.452 112.225 182.742 112.211Z"/><path fill="#B372EF" d="M239.97 208.08C239.918 211.42 239.907 215.629 240.275 218.884C241.017 225.227 244.284 231.003 249.338 234.906C254.337 238.826 260.699 240.577 266.999 239.767C271.528 239.21 275.798 237.35 279.29 234.411C293.478 222.619 284.741 206.617 289.384 201.094C290 200.36 290.759 199.982 291.726 199.965C292.635 199.949 293.98 200.398 294.625 201.045C295.434 201.856 295.707 203.148 295.844 204.239C296.179 206.903 295.977 209.769 295.971 212.459C295.958 218.579 295.794 224.737 295.992 230.853C296.23 238.27 298.396 244.55 303.932 249.698L304.193 249.938C314.226 257.982 325.654 258.067 335.766 250.061C344.401 242.299 344.064 234.201 344.044 223.546L344.018 208.034L400.831 208.078C403.038 218.746 408.621 228.416 413.866 237.857C417.505 244.408 420.814 250.526 424.138 257.239C440.659 290.601 446.923 327.674 447.765 364.623C448.031 375.535 448.353 386.369 445.933 397.119C430.597 464.925 349.705 486.013 290.195 493.591C255.797 497.97 221.982 495.269 188.216 488.1C148.422 479.651 101.271 462.438 78.2788 426.628C71.8821 416.68 67.5135 405.567 65.4238 393.927C63.6914 384.23 63.9965 374.51 64.2299 364.717C65.0179 331.658 70.1892 297.316 83.4734 266.843C86.6078 259.61 90.0794 252.528 93.877 245.62C100.354 233.773 108.317 221.219 111.206 208.017C153.972 208.497 197.149 207.736 239.97 208.08Z"/><path fill="#A260E4" d="M304.193 249.938C314.226 257.982 325.654 258.067 335.766 250.061C336.276 252.154 336.049 272.222 335.618 274.83C334.9 279.017 332.517 282.735 329.013 285.138C325.537 287.515 321.265 288.427 317.121 287.677C312.919 286.9 309.207 284.463 306.823 280.916C305.629 279.169 304.813 277.193 304.426 275.113C303.926 272.495 303.713 252.349 304.193 249.938Z"/><path d="M416.026 391.98L432.032 391.969C431.642 397.585 431.333 400.632 429.772 406.088C413.622 455.163 333.771 474.893 288.607 478.491C228.153 483.308 154.135 476.215 104.774 437.586C94.1928 429.305 84.2226 415.82 81.3259 402.699C80.568 398.992 80.2794 395.759 79.9518 391.975L95.9893 391.97C96.7156 402.016 99.6256 409.241 106.446 416.936C133.567 447.532 189.738 459.93 228.626 462.905C281.963 466.985 354.547 459.763 397.635 424.799C405.208 418.655 413.238 408.509 415.188 398.873C415.643 396.624 415.837 394.284 416.026 391.98Z"/><path d="M415.994 359.973L432.018 359.978L432.03 376.064L415.997 376.003C415.939 370.686 415.989 365.297 415.994 359.973Z"/><defs><linearGradient id="gradient_0" gradientUnits="userSpaceOnUse" x1="330.63409" y1="101.03633" x2="190.68842" y2="221.0041"><stop offset="0" stop-color="#FFAE20"/><stop offset="1" stop-color="#FF9136"/></linearGradient></defs><path fill="url(#gradient_0)" d="M136.791 159.96C141.775 141.411 155.005 128.962 174.879 128.152C178.172 127.667 185.303 129.587 188.113 128.491C191.385 127.215 196.756 120.74 199.75 118.327C213.171 107.468 230.403 102.478 247.549 104.485C264.243 106.292 279.771 115.184 290.16 128.246C292.918 131.149 294.486 135.527 297.114 138.443C303.425 144.973 308.351 138.692 313.277 135.232C330.658 123.023 353.733 126.885 366.96 142.682C371.658 148.543 373.363 152.826 375.228 159.986C362.32 159.98 348.85 159.782 335.987 160.029C331.371 160.672 328.578 162.531 328.157 167.515C327.756 172.261 328.107 177.029 327.987 181.777C327.689 193.501 328.4 205.614 327.955 217.297C328.007 219.934 327.957 222.647 328.027 225.351C328.233 231.541 328.363 239.673 320.047 239.925C317.911 239.989 315.773 239.019 314.318 237.507C310.977 234.034 311.998 225.629 312.051 221.113C311.573 208.096 314.974 196.522 303.356 187.552C295.617 182.802 288.576 182.998 280.779 187.455C274.219 192.554 272.041 197.699 272.005 205.982C272.006 212.453 273.733 223.662 264.195 223.917C262.038 223.975 259.949 223.158 258.403 221.652C255.091 218.369 256.002 210.118 256.051 205.362C255.628 192.543 256.555 179.451 255.728 166.665C255.181 158.214 242.627 159.944 236.734 159.952L214.282 159.979L136.791 159.96Z"/><path fill="#FF883D" d="M366.96 142.682C371.658 148.543 373.363 152.826 375.228 159.986C362.32 159.98 348.85 159.782 335.987 160.029C335.949 159.164 335.923 158.37 336.1 157.517C336.82 154.063 337.88 152.342 339.671 149.794C346.56 139.997 361.632 146.421 366.96 142.682Z"/><path fill="#FF883D" d="M295.809 168.439C295.819 166.831 295.645 163.483 295.897 162.048C296.233 165.817 295.982 172.115 295.995 176.016L303.987 176.012C303.12 177.141 304.771 184.08 303.356 187.552C295.617 182.802 288.576 182.998 280.779 187.455C279.639 185.811 280.156 184.408 280.007 182.612C279.229 173.234 286.289 166.171 295.809 168.439Z"/><path d="M295.897 162.048C295.936 161.284 295.848 160.661 296.326 160.118C299.081 159.739 308.595 159.988 312.006 160.007L312.019 176.005L303.987 176.012L295.995 176.016C295.982 172.115 296.233 165.817 295.897 162.048Z"/><path fill="#FF883D" d="M312.051 221.113C312.167 221.77 312.245 222.039 312.445 222.679C314.922 224.333 324.891 223.898 327.602 222.582C328.036 220.883 327.65 219.075 327.955 217.297C328.007 219.934 327.957 222.647 328.027 225.351C328.233 231.541 328.363 239.673 320.047 239.925C317.911 239.989 315.773 239.019 314.318 237.507C310.977 234.034 311.998 225.629 312.051 221.113Z"/><path fill="#FF883D" d="M256.051 205.362L256.408 207.123L256.904 207.127C258.35 207.15 260.487 207.603 261.999 207.758C264.782 208.044 269.084 207.654 271.695 206.643L272.005 205.982C272.006 212.453 273.733 223.662 264.195 223.917C262.038 223.975 259.949 223.158 258.403 221.652C255.091 218.369 256.002 210.118 256.051 205.362Z"/><path d="M199.989 136.015C205.328 135.977 210.667 135.976 216.006 136.011L216.032 152.012L199.991 152.019L199.989 136.015Z"/><path d="M239.986 120.014C245.326 119.977 250.666 119.974 256.006 120.006L256.018 136.004L239.996 136.018L239.986 120.014Z"/><path fill="#DFB7FE" d="M104.135 176.087C109.972 175.896 116.311 176.013 122.178 176.017L152.637 176.022L239.991 176.05L239.992 191.98L232.375 191.974L147.421 191.983L119.746 191.987C114.698 191.987 109.52 192.066 104.482 191.877C102.546 191.721 100.987 191.727 99.4115 190.467C95.5489 187.376 94.8315 182.554 98.0658 178.749C99.8206 176.685 101.631 176.36 104.135 176.087Z"/><path fill="#DFB7FE" d="M344.013 176.025L387.468 176.013C394.47 176.012 401.792 175.786 408.755 176.226C415.668 176.663 418.064 184.526 413.536 189.681C412.426 190.692 410.989 191.607 409.494 191.726C403.081 192.235 395.879 191.963 389.428 191.968L344.048 191.975C344.005 186.659 343.993 181.342 344.013 176.025Z"/><path fill="#DFB7FE" d="M81.1964 455.102C86.4322 460.402 98.4548 470.206 105.082 473.696L87.8846 487.454C84.7832 489.938 80.1895 493.866 77.0219 495.947C75.5757 496.011 73.9306 495.986 72.4669 495.996C72.6509 484.394 76.6822 465.845 81.1964 455.102Z"/><path fill="#DFB7FE" d="M430.653 455.195C431.239 455.809 432.36 458.87 432.66 459.765C436.185 470.254 439.198 484.988 439.561 496C438.072 496.011 436.511 495.965 435.016 495.94C432.759 494.593 427.143 489.849 424.843 487.99C418.932 483.429 412.864 478.073 406.905 473.701C413.363 470.448 425.573 460.328 430.653 455.195Z"/><path d="M341.627 24.0993C359.239 22.8014 374.572 36.02 375.881 53.6311C377.191 71.2423 363.983 86.5835 346.372 87.905C328.745 89.2278 313.387 76.0042 312.076 58.3764C310.765 40.7486 323.998 25.3985 341.627 24.0993Z"/><path fill="#FFA427" d="M328.427 59.4877C327.001 53.1216 329.592 46.5284 334.971 42.837C340.351 39.1457 347.435 39.0993 352.862 42.72C358.289 46.3406 360.966 52.8995 359.623 59.2836C358.077 66.6329 351.617 71.9105 344.107 71.9596C336.597 72.0088 330.069 66.8161 328.427 59.4877Z"/><path fill="#FF883D" d="M359.623 59.2836C358.077 66.6329 351.617 71.9105 344.107 71.9596C336.597 72.0088 330.069 66.8161 328.427 59.4877C330.7 59.875 334.022 62.3192 336.811 63.061C342.832 64.7977 348.83 64.4729 354.451 61.6094C355.773 60.9358 358.224 59.6032 359.623 59.2836Z"/><path d="M149.991 40.0985C163.155 39.0074 174.723 48.769 175.86 61.9294C176.998 75.0898 167.277 86.6915 154.121 87.8754C140.899 89.0652 129.226 79.2853 128.083 66.0591C126.94 52.8329 136.761 41.1952 149.991 40.0985Z"/><path fill="#FFA427" d="M150.927 56.1102C155.288 55.5168 159.303 58.5751 159.889 62.9372C160.476 67.2992 157.411 71.3094 153.048 71.8889C148.695 72.4671 144.696 69.4108 144.11 65.0585C143.525 60.7062 146.575 56.7022 150.927 56.1102Z"/><path d="M400.11 80.0129C405.406 79.9633 410.702 79.977 415.997 80.0539C416.074 98.4558 416.272 117.686 415.968 136.041C410.698 136.147 405.263 136.063 399.973 136.085C400.401 122.901 399.731 108.753 400.006 95.4696C400.11 90.4323 399.801 85.0058 400.11 80.0129Z"/><path d="M96.1101 40.0129C101.406 39.9633 106.701 39.977 111.997 40.0539C112.073 58.4585 112.271 77.6834 111.968 96.0414C106.7 96.1474 101.261 96.0639 95.9733 96.0836C96.4039 82.912 95.7336 68.7782 96.0052 55.5029C96.1084 50.4606 95.8013 45.0121 96.1101 40.0129Z"/><path d="M96.1075 8.00979C101.405 7.95893 106.703 7.97225 112 8.04976C111.988 11.8371 112.323 20.7517 111.893 24.0245C106.771 24.2369 101.138 24.081 95.9691 24.0826C96.0667 18.9708 95.7966 13.0124 96.1075 8.00979Z"/><path d="M400.11 48.0117C405.406 47.9603 410.703 47.974 415.998 48.0528C415.993 51.7983 416.319 60.7999 415.893 64.0245C410.773 64.2371 405.138 64.0817 399.97 64.0826C400.099 58.8827 399.775 53.1121 400.11 48.0117Z"/><path d="M235.759 0L243.965 0C245.044 0.495675 247.13 1.12055 248.332 1.56498C254.42 3.81628 259.335 8.4412 261.951 14.3818C264.482 20.1415 264.637 26.6673 262.382 32.5405C259.971 38.6096 255.273 43.4886 249.299 46.1263C243.585 48.5763 237.135 48.6681 231.354 46.3815C211.804 38.5156 210.709 11.8457 229.502 2.31754C231.201 1.45619 233.669 0.873301 235.523 0.100047L235.759 0Z"/><path fill="#FFA427" d="M238.921 16.1109C243.283 15.5144 247.301 18.5715 247.889 22.9344C248.477 27.2973 245.412 31.3092 241.048 31.8888C236.696 32.4669 232.697 29.4122 232.111 25.0612C231.524 20.7102 234.571 16.7059 238.921 16.1109Z"/></svg>